<?xml version="1.0" encoding="utf-8"?>
<svg xmlns="http://www.w3.org/2000/svg">
<symbol id="icon" viewBox="0 0 100 100">
	<path d="m49.462 16.724c-0.74369 0.22555-1.5085 0.69637-2.0891 1.3024-5.132 5.7602-17.222 21.656-23.226 25.484-6.037 1.8309-12.235 6.9113-9.8071 14.917s10.448 8.774 16.441 6.9564c1.4185-0.04806 3.1049 0.15704 4.9186 0.46684l6.0899 20.08 8.7493-2.6535-4.5773-15.093c7.0031 1.9843 14.196 4.4366 18.289 5.4883 0.81936 0.18144 1.6731 0.16135 2.4606-0.07747 2.2748-0.68992 3.8174-3.1641 3.0479-5.7014l-14.594-48.121c-0.76952-2.5373-3.4266-3.7378-5.7014-3.0479zm15.921 52.496c-1.9675-0.502-4.663-1.3565-7.8888-2.3845-0.84589-0.26893-1.7355-0.52459-2.6384-0.824l-11.078-36.528c0.554-0.6935 1.0908-1.2862 1.6448-1.9797 2.1246-2.6029 4.053-4.9075 5.3665-6.4046zm0.78872-28.901 17.499-5.3071 1.3268 4.3747-17.499 5.3071zm2.6535 8.7493 20.152 3.4423 1.3268 4.3747-20.152-3.4423zm9.538-31.555 1.3268 4.3747-14.845 14.056-1.3268-4.3747z" fill-rule="evenodd" stroke-width="4.5714"/>

</symbol>
<symbol id="mark-github" viewBox="0 0 16 16"><path fill-rule="evenodd" d="M8 0C3.58 0 0 3.58 0 8c0 3.54 2.29 6.53 5.47 7.59.4.07.55-.17.55-.38 0-.19-.01-.82-.01-1.49-2.01.37-2.53-.49-2.69-.94-.09-.23-.48-.94-.82-1.13-.28-.15-.68-.52-.01-.53.63-.01 1.08.58 1.23.82.72 1.21 1.87.87 2.33.66.07-.52.28-.87.51-1.07-1.78-.2-3.64-.89-3.64-3.95 0-.87.31-1.59.82-2.15-.08-.2-.36-1.02.08-2.12 0 0 .67-.21 2.2.82.64-.18 1.32-.27 2-.27.68 0 1.36.09 2 .27 1.53-1.04 2.2-.82 2.2-.82.44 1.1.16 1.92.08 2.12.51.56.82 1.27.82 2.15 0 3.07-1.87 3.75-3.65 3.95.29.25.54.73.54 1.48 0 1.07-.01 1.93-.01 2.2 0 .21.15.46.55.38A8.013 8.013 0 0 0 16 8c0-4.42-3.58-8-8-8z"/>
</symbol>
<symbol id="repo" viewBox="0 0 12 16"><path fill-rule="evenodd" d="M4 9H3V8h1v1zm0-3H3v1h1V6zm0-2H3v1h1V4zm0-2H3v1h1V2zm8-1v12c0 .55-.45 1-1 1H6v2l-1.5-1.5L3 16v-2H1c-.55 0-1-.45-1-1V1c0-.55.45-1 1-1h10c.55 0 1 .45 1 1zm-1 10H1v2h2v-1h3v1h5v-2zm0-10H2v9h9V1z"/>
</symbol>
<symbol id="issue-opened" viewBox="0 0 14 16"><path fill-rule="evenodd" d="M7 2.3c3.14 0 5.7 2.56 5.7 5.7s-2.56 5.7-5.7 5.7A5.71 5.71 0 0 1 1.3 8c0-3.14 2.56-5.7 5.7-5.7zM7 1C3.14 1 0 4.14 0 8s3.14 7 7 7 7-3.14 7-7-3.14-7-7-7zm1 3H6v5h2V4zm0 6H6v2h2v-2z"/>
</symbol>
<symbol id="linkedin" viewBox="0 0 64 64">
    <path fill="#fff" d="M10.305 11.119h43.119v42.847H10.305z"/>
    <path d="M12.8 51.2V24.384h8.192V51.2H12.8m8.448-34.24c.064 2.304-1.664 4.16-4.416 4.16-2.56 0-4.224-1.856-4.224-4.16 0-2.368 1.728-4.16 4.352-4.16s4.288 1.792 4.288 4.16M42.752 51.2V36.352c0-3.456-1.152-5.824-4.16-5.824-2.24 0-3.584 1.6-4.224 3.136-.192.576-.256 1.344-.256 2.112V51.2H25.92V32.96c0-3.328-.128-6.144-.192-8.576h7.104l.384 3.776h.128c1.088-1.792 3.776-4.352 8.192-4.352 5.376 0 9.472 3.648 9.472 11.584V51.2h-8.256M64 5.632C64 2.56 61.44 0 58.368 0H5.632C2.56 0 0 2.56 0 5.632v52.736C0 61.44 2.56 64 5.632 64h52.736C61.44 64 64 61.44 64 58.368V5.632" fill="#1d87bd"/>

</symbol>
<symbol id="facebook" viewBox="0 0 266.893 266.895">
    <path d="M248.08 262.31c7.854 0 14.223-6.37 14.223-14.225V18.815c0-7.857-6.368-14.224-14.223-14.224H18.81c-7.857 0-14.224 6.368-14.224 14.225v229.27c0 7.855 6.366 14.225 14.224 14.225h229.27z" fill="#3C5A99"/>
    <path d="M182.41 262.31v-99.803h33.5l5.015-38.895H182.41V98.77c0-11.262 3.127-18.936 19.275-18.936l20.596-.01V45.038c-3.56-.474-15.787-1.533-30.01-1.533-29.696 0-50.026 18.126-50.026 51.413V123.6H108.66v38.896h33.584V262.3h40.15z" fill="#FFF"/>

</symbol>
<symbol id="twitter" viewBox="0 0 341.7375 277.725">
    <path fill="#6babe1" d="M107.475 277.72C67.88 277.72 31.03 266.113 0 246.22c5.485.65 11.066.98 16.725.98 32.847 0 63.08-11.21 87.074-30.013-30.68-.566-56.574-20.836-65.495-48.69a70.083 70.083 0 0 0 13.19 1.256c6.395 0 12.59-.856 18.473-2.458-32.074-6.44-56.242-34.778-56.242-68.748 0-.296 0-.588.006-.88a69.83 69.83 0 0 0 31.756 8.768c-18.812-12.573-31.19-34.033-31.19-58.356 0-12.85 3.457-24.894 9.492-35.25 34.58 42.42 86.24 70.33 144.512 73.255a70.387 70.387 0 0 1-1.816-15.978c0-38.718 31.393-70.11 70.114-70.11 20.165 0 38.386 8.515 51.176 22.142a140.382 140.382 0 0 0 44.52-17.016c-5.233 16.372-16.35 30.112-30.826 38.79 14.182-1.695 27.695-5.464 40.27-11.04-9.4 14.06-21.29 26.408-34.986 36.293.135 3.007.202 6.03.202 9.07 0 92.65-70.52 199.488-199.475 199.488"/>

</symbol>
<symbol id="location" viewBox="0 0 16 16.003">
    <path d="M8 0a5 5 0 0 0-5 5c0 .173.014.332.031.5.014.167.036.336.063.5C3.666 9.514 6 12.003 8 14.003c2-2 4.334-4.489 4.906-8.003a6.38 6.38 0 0 0 .063-.5c.017-.168.03-.327.03-.5a5 5 0 0 0-5-5zm0 3a2 2 0 1 1 0 4 2 2 0 0 1 0-4z" solid-color="#000000"/>

</symbol>
<symbol id="call-start" viewBox="0 0 16 16">
    <path d="M13.032 1c.534 0 .969.427.969.969v.062c-.017 6.613-5.383 11.97-12 11.97H1.97c-.545 0-.97-.447-.97-1v-3c0-.555.447-1 1-1h2c.555 0 1 .445 1 1v.468A8.967 8.967 0 0 0 10.47 5H10c-.553 0-1-.446-1-1V2c0-.554.447-1 1-1h3.032z"/>

</symbol>
<symbol id="public-share" viewBox="0 0 16 16">
    <path d="M5.969 7.969a2.969 2.969 0 1 1-5.938 0 2.969 2.969 0 1 1 5.938 0zm9.969 5a2.969 2.969 0 1 1-5.938 0 2.969 2.969 0 1 1 5.938 0zm0-10a2.969 2.969 0 1 1-5.938 0 2.969 2.969 0 1 1 5.938 0z" overflow="visible"/>
    <path d="M12.625 2.156L2.562 7.031.75 7.938l1.812.906 10.032 5.062.906-1.812-8.22-4.156 8.219-4-.875-1.782z" overflow="visible"/>

</symbol>
<symbol id="close" viewBox="0 0 16 16">
    <path d="M4 4h1.031c.255.011.51.129.688.313L8 6.592l2.313-2.28c.265-.231.446-.306.687-.313h1v1c0 .286-.034.55-.25.75L9.469 8.031l2.25 2.25c.188.188.281.454.281.719v1h-1c-.265 0-.53-.093-.719-.281L8 9.438l-2.281 2.28A1.015 1.015 0 0 1 5 12H4v-1c0-.265.093-.53.281-.719l2.282-2.25L4.28 5.75A.909.909 0 0 1 4 5V4z"/>

</symbol>
<symbol id="mail-send" viewBox="0 0 16 16">
    <g transform="translate(-360 -786)">
        <path d="M361 786v2a1 1 0 0 1 0 2v1a1 1 0 1 1 0 2v1a1 1 0 0 1 0 2v1a1 1 0 0 1 0 2v2h2a1 1 0 0 1 2 0h1a1 1 0 0 1 2 0h1a1 1 0 0 1 2 0h1a1 1 0 1 1 2 0h2v-2a1 1 0 1 1 0-2v-1a1 1 0 1 1 0-2v-1a1 1 0 1 1 0-2v-1a1 1 0 1 1 0-2v-2h-2a1 1 0 1 1-2 0h-1a1 1 0 1 1-2 0h-1a1 1 0 0 1-2 0h-1a1 1 0 0 1-2 0zm2 2h11v11h-2v-2.063c0-1.066-.779-1.98-1.719-2.25-.494.48-1.07.688-1.781.688s-1.288-.208-1.781-.688c-.777.28-1.718.977-1.719 2.22V799h-2z"/>
        <circle cx="49.5" cy="342.5" r="2.5" transform="translate(322.81 476.15) scale(.92307)"/>
    </g>

</symbol>
<symbol id="web-browser" viewBox="0 0 16 16.004">
    <path d="M8 4.846v10.38l-2.344-2.288-1.34 2.734c-.327.74-2.033.145-1.548-.844l1.326-2.839H1.136L8 4.846z" display="block" overflow="visible"/>
    <path d="M7.156 1.063C3.33 1.522.578 5.02 1.063 8.843c.131 1.035.293 1.383.293 1.383l1.675-1.632A4.992 4.992 0 0 1 7.406 3.03a4.992 4.992 0 0 1 5.563 4.375c.314 2.608-1.391 5.025-3.969 5.532l.031 2s.521-.106.624-.131c3.416-.834 5.706-4.128 5.283-7.65-.46-3.827-3.955-6.555-7.782-6.095z" overflow="visible"/>
    <path d="M4.113 7.815v-.206l-.198.019.05-.393h-.117l-.115.15-.116.056-.165-.093-.017-.206.033-.225.248-.186h.199l.033-.113.247.056.182.225.033-.374.314-.262.116-.28.231-.094.133-.187.297-.056.149-.225h-.446l.28-.13h.199l.28-.094.034-.112-.1-.094-.115-.037.033-.112-.083-.169-.198.075.033-.15-.231-.13-.182.317.017.113-.182.075-.116.243-.05-.225-.313-.13-.05-.169.413-.243.182-.168.017-.206-.1-.056L4.84 4l-.082.206s-.139.027-.174.036C4.13 4.66 3.214 5.562 3 7.266c.008.04.155.268.155.268l.347.206.347.093m3.966-4.3l-.43-.168-.496.056-.611.168-.116.112.38.262v.15l-.149.15.199.392.132-.075.165-.262a5.51 5.51 0 0 0 .727-.28l.199-.505m2.529.342l-.375.094-.219.156v.125l-.375.25.094.344.219-.157.125.157.156.093.094-.28L10 4.5l.063-.094.218-.187h.094l-.094.218v.188c.09-.024.16-.051.25-.063l-.25.188v.125l-.312.219-.281-.063v-.156l-.125.062.062.157h-.219l-.125.218-.156.157-.094.03v.188l.032.157H9.03v.53l.063-.03.094-.219L9.375 6l.031-.094.282-.062.156.187.187.094-.093.187.156-.03.062-.22-.187-.218h.062l.22.156.03.219.157.219.062-.313.094-.031c.096.1.169.231.25.344h.281l.188.125-.094.093-.156.157h-.25l-.344-.094h-.188l-.125.156-.343-.375-.25-.062-.375.062-.157.094V9l.032.031.25-.156.093.094h.281l.125.156-.093.312.187.188V10l.125.25-.093.25c-.01.161 0 .307 0 .469.08.219.143.435.218.656l.063.344v.187h.125l.219-.125h.25l.375-.437-.032-.157.25-.218-.187-.188.219-.187.218-.125.094-.125-.062-.25V9.75l.187-.375.188-.25.25-.563v-.156c-.117.015-.23.023-.344.031-.072.005-.145 0-.219 0a7.442 7.442 0 0 1-.312-.78l-.157-.188-.093-.313.062-.062.219.25.25.562.156.156-.062.22.156.155.25-.25.312-.218.157-.188v-.219c-.04-.073-.055-.145-.094-.218l-.156.187-.125-.156-.188-.125v-.281l.219.218.219-.03c.101.091.192.207.28.312L13 7.28c0-.174-.2-1.02-.625-1.75S11.22 4.125 11.22 4.125l-.063.094-.218.218-.25-.25h.25l.125-.125-.47-.093-.25-.094z" opacity=".3" overflow="visible"/>

</symbol>
<symbol id="link" viewBox="0 0 16 16"><path fill-rule="evenodd" d="M4 9h1v1H4c-1.5 0-3-1.69-3-3.5S2.55 3 4 3h4c1.45 0 3 1.69 3 3.5 0 1.41-.91 2.72-2 3.25V8.59c.58-.45 1-1.27 1-2.09C10 5.22 8.98 4 8 4H4c-.98 0-2 1.22-2 2.5S3 9 4 9zm9-3h-1v1h1c1 0 2 1.22 2 2.5S13.98 12 13 12H9c-.98 0-2-1.22-2-2.5 0-.83.42-1.64 1-2.09V6.25c-1.09.53-2 1.84-2 3.25C6 11.31 7.55 13 9 13h4c1.45 0 3-1.69 3-3.5S14.5 6 13 6z"/>
</symbol>
<symbol id="link-external" viewBox="0 0 12 16"><path fill-rule="evenodd" d="M11 10h1v3c0 .55-.45 1-1 1H1c-.55 0-1-.45-1-1V3c0-.55.45-1 1-1h3v1H1v10h10v-3zM6 2l2.25 2.25L5 7.5 6.5 9l3.25-3.25L12 8V2H6z"/>
</symbol>
<symbol id="system-software-install" viewBox="0 0 16 16">
    <path d="M3 8h10v7.059c0 .492-.472.937-.996.937H4c-.539 0-1-.43-1-1z" overflow="visible"/>
    <path d="M6.688 2.969a1 1 0 0 0-.657.375L3.22 6.812a1 1 0 0 0-.22.625v1a1 1 0 1 0 2 0v-.656l2.594-3.156a1 1 0 0 0-.907-1.656zm2.218 3a1 1 0 1 0-.031 2l2.156.375V8.5a1 1 0 1 0 2 0v-1a1 1 0 0 0-.812-1l-3-.5a1 1 0 0 0-.313-.031z" overflow="visible"/>

</symbol>
<symbol id="cloud-upload" viewBox="0 0 16 16"><path fill-rule="evenodd" d="M7 9H5l3-3 3 3H9v5H7V9zm5-4c0-.44-.91-3-4.5-3C5.08 2 3 3.92 3 6 1.02 6 0 7.52 0 9c0 1.53 1 3 3 3h3v-1.3H3c-1.62 0-1.7-1.42-1.7-1.7 0-.17.05-1.7 1.7-1.7h1.3V6c0-1.39 1.56-2.7 3.2-2.7 2.55 0 3.13 1.55 3.2 1.8v1.2H12c.81 0 2.7.22 2.7 2.2 0 2.09-2.25 2.2-2.7 2.2h-2V12h2c2.08 0 4-1.16 4-3.5C16 6.06 14.08 5 12 5z"/>
</symbol>
<symbol id="document-new" viewBox="0 0 16 16">
    <path fill-rule="evenodd" d="M2.94 1a1 1 0 0 0-1 1v13a1 1 0 0 0 1 1h4a1 1 0 1 0 0-2h-3V3h5.586l2.414 2.414V8a1 1 0 1 0 2 0V5a1 1 0 0 0-.293-.707l-3-3A1 1 0 0 0 9.94 1z" solid-color="#000000"/>
    <path d="M10.94 10v1.997h-2v1.996h2v1.997h2v-1.997h2v-1.996h-2V10z"/>

</symbol>
<symbol id="document-open" viewBox="0 0 16 16">
    <path d="M4.81.01c-.458.087-.82.533-.812 1v7h2v-6h4v3h3v3h2V4.572a1.013 1.013 0 0 0-.282-.718L11.154.29a1.012 1.012 0 0 0-.719-.281H4.998a1.464 1.464 0 0 0-.094 0 1.464 1.464 0 0 0-.094 0z"/>
    <path d="M1.03 3s-1 0-1 1l-.031 9.01c0 .833.574 1.506 1.062 1.75.489.244.938.25.938.25h12s.449-.006.937-.25c.489-.244 1.063-.917 1.063-1.75v-4H2.968l-.469 4.031a.52.52 0 0 1-.531.469.52.52 0 0 1-.469-.531l.5-4.5a.515.515 0 0 1 .406-.47.489.489 0 0 1 .094 0h.5V3z"/>

</symbol>
<symbol id="document-save" viewBox="0 0 16 16">
    <path d="M4.406 9a.5.5 0 0 0-.312.219l-1 1.5a.5.5 0 1 0 .812.562l1-1.5a.5.5 0 0 0-.5-.781zm7 0a.5.5 0 0 0-.312.781l1 1.5a.5.5 0 1 0 .812-.562l-1-1.5a.5.5 0 0 0-.5-.219zM7 1v5.563L5.719 5.28A1.015 1.015 0 0 0 5 5.001L4 5v1c0 .265.093.53.281.719l3 3 .282.281h.875l.28-.281 3-3A1.01 1.01 0 0 0 12 6V5h-1c-.265 0-.53.093-.719.281l-1.28 1.282V1z"/>
    <path fill-rule="evenodd" d="M3 11v4h10v-4zm3.344 1.438a.651.651 0 0 1 .062 0c.291-.056.6.203.594.5V13h2v-.063c-.004-.264.236-.507.5-.507s.504.243.5.507V13c0 .545-.455 1-1 1H7c-.545 0-1-.455-1-1v-.063a.515.515 0 0 1 .344-.5z"/>

</symbol>
<symbol id="document-save-as" viewBox="0 0 16 16">
    <path d="M4 5v1c0 .265.093.53.281.719l3 3 .282.281h.875l.28-.281 3-3A1.01 1.01 0 0 0 12 6V5h-1c-.265 0-.53.093-.719.281L8 7.562l-2.281-2.28A1.015 1.015 0 0 0 5 5z"/>
    <path d="M7 3v5h2V3z"/>
    <path fill-rule="evenodd" d="M3 11v4h10v-4zm3.344 1.438a.651.651 0 0 1 .062 0c.291-.056.6.203.594.5V13h2v-.063c-.004-.264.236-.507.5-.507s.504.243.5.507V13c0 .545-.455 1-1 1H7c-.545 0-1-.455-1-1v-.063a.515.515 0 0 1 .344-.5z"/>
    <path d="M3 0c-.545 0-1 .455-1 1v2c0 .545.455 1 1 1h10c.545 0 1-.455 1-1V1c0-.545-.455-1-1-1zm0 1h10v2H3zm1.41 8a.5.5 0 0 0-.313.219l-1 1.5a.5.5 0 1 0 .813.562l1-1.5A.5.5 0 0 0 4.41 9zm7 0a.5.5 0 0 0-.313.781l1 1.5a.5.5 0 1 0 .813-.562l-1-1.5a.5.5 0 0 0-.5-.219z"/>

</symbol></svg>