<svg version="1.1" viewBox="0 0 100 100" xmlns="http://www.w3.org/2000/svg">
	<path d="m49.462 16.724c-0.74369 0.22555-1.5085 0.69637-2.0891 1.3024-5.132 5.7602-17.222 21.656-23.226 25.484-6.037 1.8309-12.235 6.9113-9.8071 14.917s10.448 8.774 16.441 6.9564c1.4185-0.04806 3.1049 0.15704 4.9186 0.46684l6.0899 20.08 8.7493-2.6535-4.5773-15.093c7.0031 1.9843 14.196 4.4366 18.289 5.4883 0.81936 0.18144 1.6731 0.16135 2.4606-0.07747 2.2748-0.68992 3.8174-3.1641 3.0479-5.7014l-14.594-48.121c-0.76952-2.5373-3.4266-3.7378-5.7014-3.0479zm15.921 52.496c-1.9675-0.502-4.663-1.3565-7.8888-2.3845-0.84589-0.26893-1.7355-0.52459-2.6384-0.824l-11.078-36.528c0.554-0.6935 1.0908-1.2862 1.6448-1.9797 2.1246-2.6029 4.053-4.9075 5.3665-6.4046zm0.78872-28.901 17.499-5.3071 1.3268 4.3747-17.499 5.3071zm2.6535 8.7493 20.152 3.4423 1.3268 4.3747-20.152-3.4423zm9.538-31.555 1.3268 4.3747-14.845 14.056-1.3268-4.3747z" fill-rule="evenodd" stroke-width="4.5714"/>
</svg>
