<?xml version="1.0" standalone="no"?>
<!DOCTYPE svg PUBLIC "-//W3C//DTD SVG 20010904//EN"
 "http://www.w3.org/TR/2001/REC-SVG-20010904/DTD/svg10.dtd">
<svg version="1.0" xmlns="http://www.w3.org/2000/svg"
 width="700.000000pt" height="700.000000pt" viewBox="0 0 700.000000 700.000000"
 preserveAspectRatio="xMidYMid meet">
<metadata>
Created by potrace 1.11, written by Peter Selinger 2001-2013
</metadata>
<g transform="translate(0.000000,700.000000) scale(0.100000,-0.100000)"
fill="#000000" stroke="none">
<path d="M3493 5834 c-108 -22 -144 -53 -338 -284 -95 -113 -66 -78 -317 -380
-207 -250 -235 -284 -253 -304 -5 -6 -32 -38 -60 -71 -64 -77 -95 -113 -120
-139 -11 -12 -54 -60 -95 -106 -238 -269 -511 -533 -605 -583 -16 -9 -61 -28
-100 -43 -178 -68 -298 -144 -420 -268 -150 -151 -218 -312 -216 -506 2 -106
4 -122 25 -200 50 -185 130 -315 256 -414 119 -94 240 -143 403 -163 65 -7
220 -7 272 1 87 14 112 19 170 33 56 15 163 19 224 8 14 -2 49 -6 76 -10 61
-6 96 -13 102 -19 4 -3 61 -189 214 -694 27 -89 72 -237 100 -330 28 -92 64
-213 81 -270 17 -56 36 -102 42 -102 6 0 45 11 86 24 41 13 107 33 145 44 39
12 136 42 218 67 81 25 149 45 151 45 2 0 -3 21 -11 48 -8 26 -16 54 -18 62
-2 8 -8 29 -13 45 -33 102 -250 822 -257 848 -2 10 -7 27 -10 37 -6 18 -3 18
57 -1 35 -11 86 -26 113 -34 87 -24 471 -142 700 -215 72 -22 137 -42 145 -44
8 -2 74 -21 145 -42 185 -53 271 -49 372 19 90 60 146 177 137 285 -2 24 -38
157 -80 296 -41 138 -91 302 -110 364 -18 61 -50 165 -70 230 -19 64 -48 160
-64 212 -33 110 -208 688 -322 1060 -28 91 -63 208 -78 260 -16 52 -52 169
-80 260 -28 91 -53 173 -55 183 -2 10 -18 62 -34 115 -16 53 -53 174 -81 267
-28 94 -58 188 -67 210 -55 146 -207 230 -360 199z m127 -524 c34 -113 70
-232 80 -265 10 -33 41 -136 70 -230 28 -93 74 -244 101 -335 28 -91 73 -239
101 -330 27 -91 72 -239 100 -330 27 -91 63 -208 78 -260 16 -52 42 -140 60
-195 17 -55 32 -104 34 -110 1 -5 11 -37 21 -70 10 -33 19 -64 21 -70 3 -15
263 -874 279 -921 l13 -41 -127 37 c-205 61 -585 180 -600 188 -8 4 -25 44
-38 87 -13 44 -39 132 -58 195 -19 63 -48 158 -64 210 -28 91 -122 402 -256
845 -35 116 -111 368 -170 560 -59 193 -117 386 -130 430 -13 44 -33 109 -44
145 -25 80 -26 91 -3 116 15 16 45 53 123 149 10 11 34 40 55 65 22 25 57 68
79 95 46 56 96 115 110 131 6 6 30 34 54 63 24 28 45 50 47 49 1 -2 30 -95 64
-208z"/>
<path d="M5464 5757 c-6 -7 -54 -52 -106 -102 -52 -49 -171 -162 -264 -251
-93 -89 -181 -172 -195 -185 -15 -13 -93 -88 -175 -165 -82 -78 -178 -169
-214 -202 l-64 -60 44 -146 c24 -81 47 -149 50 -151 6 -4 49 35 280 255 80 76
163 155 185 175 22 21 108 102 190 180 83 79 170 162 195 185 25 23 77 73 117
110 l71 69 -18 58 c-9 32 -30 100 -46 151 -15 50 -30 92 -33 92 -3 -1 -11 -6
-17 -13z"/>
<path d="M5590 4469 c-200 -61 -857 -260 -941 -285 -15 -4 -14 -13 8 -87 14
-45 33 -110 43 -144 24 -81 26 -84 53 -74 30 11 50 18 377 117 157 47 337 102
400 121 63 19 135 41 160 48 103 30 255 77 257 79 5 5 -84 287 -92 294 -6 5
-120 -25 -265 -69z"/>
<path d="M4820 3562 c0 -5 4 -22 9 -38 6 -16 26 -82 46 -146 30 -98 40 -119
58 -123 20 -5 535 -91 602 -101 17 -3 53 -9 80 -14 28 -5 64 -12 80 -15 17 -2
41 -7 55 -9 14 -3 41 -8 60 -10 19 -3 46 -8 60 -11 14 -2 95 -16 180 -30 85
-14 179 -30 209 -35 30 -5 56 -8 57 -7 2 1 -18 70 -43 153 l-45 151 -72 11
c-39 7 -87 14 -106 17 -19 4 -60 10 -90 15 -30 5 -71 12 -90 15 -19 3 -55 9
-80 15 -25 5 -61 11 -80 14 -35 5 -133 21 -180 31 -13 2 -42 7 -65 10 -22 3
-47 8 -55 10 -8 2 -33 6 -55 10 -22 3 -51 8 -65 10 -14 2 -122 21 -240 40
-118 20 -218 39 -222 41 -4 3 -8 1 -8 -4z"/>
</g>
</svg>
